HIERARCHY
ROOT mixamorig:Hips
{
	OFFSET 0.000000 104.274902 0.000000
	CHANNELS 6 Xposition Yposition Zposition Xrotation Yrotation Zrotation
	JOINT mixamorig:Spine
	{
		OFFSET 0.000000 10.181549 0.131524
		CHANNELS 6 Xposition Yposition Zposition Xrotation Yrotation Zrotation
		JOINT mixamorig:Spine1
		{
			OFFSET 0.000000 9.893990 -1.470706
			CHANNELS 3 Xrotation Yrotation Zrotation
			JOINT mixamorig:Spine2
			{
				OFFSET 0.000000 9.220787 -1.370637
				CHANNELS 3 Xrotation Yrotation Zrotation
				JOINT mixamorig:Neck
				{
					OFFSET 0.000000 16.740372 -2.049022
					CHANNELS 6 Xposition Yposition Zposition Xrotation Yrotation Zrotation
					JOINT mixamorig:Head
					{
						OFFSET 0.000000 9.617859 1.684976
						CHANNELS 6 Xposition Yposition Zposition Xrotation Yrotation Zrotation
						JOINT mixamorig:HeadTop_End
						{
							OFFSET 0.000000 22.037384 7.501072
							CHANNELS 6 Xposition Yposition Zposition Xrotation Yrotation Zrotation
							End Site
							{
								OFFSET 0.000000 23.106567 -2.828246
							}
						}
					}
				}
				JOINT mixamorig:RightShoulder
				{
					OFFSET -4.570000 11.014877 -2.160840
					CHANNELS 6 Xposition Yposition Zposition Xrotation Yrotation Zrotation
					JOINT mixamorig:RightArm
					{
						OFFSET -10.592867 -0.524796 -2.232105
						CHANNELS 3 Xrotation Yrotation Zrotation
						JOINT mixamorig:RightForeArm
						{
							OFFSET -27.841497 0.000000 -0.000002
							CHANNELS 3 Xrotation Yrotation Zrotation
							JOINT mixamorig:RightHand
							{
								OFFSET -28.328812 0.000000 -0.000001
								CHANNELS 3 Xrotation Yrotation Zrotation
								JOINT mixamorig:RightHandThumb1
								{
									OFFSET -2.464798 -1.573990 2.681911
									CHANNELS 6 Xposition Yposition Zposition Xrotation Yrotation Zrotation
									JOINT mixamorig:RightHandThumb2
									{
										OFFSET -3.244781 -1.873383 1.873376
										CHANNELS 3 Xrotation Yrotation Zrotation
										JOINT mixamorig:RightHandThumb3
										{
											OFFSET -2.646263 -1.527817 1.527818
											CHANNELS 6 Xposition Yposition Zposition Xrotation Yrotation Zrotation
											JOINT mixamorig:RightHandThumb4
											{
												OFFSET -1.994591 -1.151581 1.151575
												CHANNELS 6 Xposition Yposition Zposition Xrotation Yrotation Zrotation
												End Site
												{
													OFFSET -1.860176 -1.142715 1.365483
												}
											}
										}
									}
								}
								JOINT mixamorig:RightHandIndex1
								{
									OFFSET -9.108299 -0.517883 2.259803
									CHANNELS 6 Xposition Yposition Zposition Xrotation Yrotation Zrotation
									JOINT mixamorig:RightHandIndex2
									{
										OFFSET -3.699997 0.000000 0.000000
										CHANNELS 3 Xrotation Yrotation Zrotation
										JOINT mixamorig:RightHandIndex3
										{
											OFFSET -2.850006 0.000000 0.000000
											CHANNELS 3 Xrotation Yrotation Zrotation
											JOINT mixamorig:RightHandIndex4
											{
												OFFSET -2.772194 0.000000 0.000000
												CHANNELS 3 Xrotation Yrotation Zrotation
												End Site
												{
													OFFSET -2.772202 0.000000 -0.000484
												}
											}
										}
									}
								}
								JOINT mixamorig:RightHandMiddle1
								{
									OFFSET -9.532501 0.000000 -0.000000
									CHANNELS 6 Xposition Yposition Zposition Xrotation Yrotation Zrotation
									JOINT mixamorig:RightHandMiddle2
									{
										OFFSET -3.699997 0.000000 0.000000
										CHANNELS 3 Xrotation Yrotation Zrotation
										JOINT mixamorig:RightHandMiddle3
										{
											OFFSET -2.949997 0.000000 0.000000
											CHANNELS 3 Xrotation Yrotation Zrotation
											JOINT mixamorig:RightHandMiddle4
											{
												OFFSET -2.946594 0.000000 0.000000
												CHANNELS 3 Xrotation Yrotation Zrotation
												End Site
												{
													OFFSET -2.946602 0.000000 -0.000982
												}
											}
										}
									}
								}
								JOINT mixamorig:RightHandRing1
								{
									OFFSET -9.103600 -0.043106 -1.865100
									CHANNELS 6 Xposition Yposition Zposition Xrotation Yrotation Zrotation
									JOINT mixamorig:RightHandRing2
									{
										OFFSET -3.379303 0.000000 0.000000
										CHANNELS 3 Xrotation Yrotation Zrotation
										JOINT mixamorig:RightHandRing3
										{
											OFFSET -2.889694 0.000000 0.000000
											CHANNELS 3 Xrotation Yrotation Zrotation
											JOINT mixamorig:RightHandRing4
											{
												OFFSET -2.638802 0.000000 0.000000
												CHANNELS 3 Xrotation Yrotation Zrotation
												End Site
												{
													OFFSET -2.638802 0.000000 0.004218
												}
											}
										}
									}
								}
								JOINT mixamorig:RightHandPinky1
								{
									OFFSET -8.076698 -0.486725 -3.806299
									CHANNELS 6 Xposition Yposition Zposition Xrotation Yrotation Zrotation
									JOINT mixamorig:RightHandPinky2
									{
										OFFSET -3.600006 0.000000 0.000000
										CHANNELS 3 Xrotation Yrotation Zrotation
										JOINT mixamorig:RightHandPinky3
										{
											OFFSET -2.099998 0.000000 0.000000
											CHANNELS 3 Xrotation Yrotation Zrotation
											JOINT mixamorig:RightHandPinky4
											{
												OFFSET -2.115791 0.000000 0.000000
												CHANNELS 3 Xrotation Yrotation Zrotation
												End Site
												{
													OFFSET -2.115799 0.000000 0.000174
												}
											}
										}
									}
								}
							}
						}
					}
				}
				JOINT mixamorig:LeftShoulder
				{
					OFFSET 4.570400 11.014679 -2.160816
					CHANNELS 6 Xposition Yposition Zposition Xrotation Yrotation Zrotation
					JOINT mixamorig:LeftArm
					{
						OFFSET 10.592373 -0.524597 -2.232116
						CHANNELS 3 Xrotation Yrotation Zrotation
						JOINT mixamorig:LeftForeArm
						{
							OFFSET 27.841488 0.000000 0.000001
							CHANNELS 3 Xrotation Yrotation Zrotation
							JOINT mixamorig:LeftHand
							{
								OFFSET 28.328808 0.000000 -0.000000
								CHANNELS 3 Xrotation Yrotation Zrotation
								JOINT mixamorig:LeftHandThumb1
								{
									OFFSET 2.466103 -1.576202 2.681698
									CHANNELS 6 Xposition Yposition Zposition Xrotation Yrotation Zrotation
									JOINT mixamorig:LeftHandThumb2
									{
										OFFSET 3.243317 -1.872528 1.872530
										CHANNELS 3 Xrotation Yrotation Zrotation
										JOINT mixamorig:LeftHandThumb3
										{
											OFFSET 2.647881 -1.528763 1.528754
											CHANNELS 6 Xposition Yposition Zposition Xrotation Yrotation Zrotation
											JOINT mixamorig:LeftHandThumb4
											{
												OFFSET 1.998924 -1.154083 1.154080
												CHANNELS 6 Xposition Yposition Zposition Xrotation Yrotation Zrotation
												End Site
												{
													OFFSET 1.884041 -1.149155 1.337651
												}
											}
										}
									}
								}
								JOINT mixamorig:LeftHandIndex1
								{
									OFFSET 9.109299 -0.518005 2.259900
									CHANNELS 6 Xposition Yposition Zposition Xrotation Yrotation Zrotation
									JOINT mixamorig:LeftHandIndex2
									{
										OFFSET 3.699997 0.000000 0.000000
										CHANNELS 3 Xrotation Yrotation Zrotation
										JOINT mixamorig:LeftHandIndex3
										{
											OFFSET 2.850006 0.000000 0.000000
											CHANNELS 3 Xrotation Yrotation Zrotation
											JOINT mixamorig:LeftHandIndex4
											{
												OFFSET 2.774895 0.000000 0.000000
												CHANNELS 3 Xrotation Yrotation Zrotation
												End Site
												{
													OFFSET 2.774902 0.000000 -0.000072
												}
											}
										}
									}
								}
								JOINT mixamorig:LeftHandMiddle1
								{
									OFFSET 9.533401 0.000000 0.000000
									CHANNELS 6 Xposition Yposition Zposition Xrotation Yrotation Zrotation
									JOINT mixamorig:LeftHandMiddle2
									{
										OFFSET 3.699997 0.000000 0.000000
										CHANNELS 3 Xrotation Yrotation Zrotation
										JOINT mixamorig:LeftHandMiddle3
										{
											OFFSET 2.949997 0.000000 0.000000
											CHANNELS 3 Xrotation Yrotation Zrotation
											JOINT mixamorig:LeftHandMiddle4
											{
												OFFSET 2.952896 0.000000 0.000000
												CHANNELS 3 Xrotation Yrotation Zrotation
												End Site
												{
													OFFSET 2.952904 0.000000 0.000165
												}
											}
										}
									}
								}
								JOINT mixamorig:LeftHandRing1
								{
									OFFSET 9.104500 -0.042999 -1.865101
									CHANNELS 6 Xposition Yposition Zposition Xrotation Yrotation Zrotation
									JOINT mixamorig:LeftHandRing2
									{
										OFFSET 3.149994 0.000000 0.000000
										CHANNELS 3 Xrotation Yrotation Zrotation
										JOINT mixamorig:LeftHandRing3
										{
											OFFSET 2.950005 0.000000 0.000000
											CHANNELS 3 Xrotation Yrotation Zrotation
											JOINT mixamorig:LeftHandRing4
											{
												OFFSET 2.644302 0.000000 0.000000
												CHANNELS 3 Xrotation Yrotation Zrotation
												End Site
												{
													OFFSET 2.644302 0.000000 0.000083
												}
											}
										}
									}
								}
								JOINT mixamorig:LeftHandPinky1
								{
									OFFSET 8.077805 -0.486893 -3.806302
									CHANNELS 6 Xposition Yposition Zposition Xrotation Yrotation Zrotation
									JOINT mixamorig:LeftHandPinky2
									{
										OFFSET 3.600006 0.000000 0.000000
										CHANNELS 3 Xrotation Yrotation Zrotation
										JOINT mixamorig:LeftHandPinky3
										{
											OFFSET 2.099998 0.000000 0.000000
											CHANNELS 3 Xrotation Yrotation Zrotation
											JOINT mixamorig:LeftHandPinky4
											{
												OFFSET 2.125496 0.000000 0.000000
												CHANNELS 3 Xrotation Yrotation Zrotation
												End Site
												{
													OFFSET 2.125504 0.000000 -0.001254
												}
											}
										}
									}
								}
							}
						}
					}
				}
			}
		}
	}
	JOINT mixamorig:RightUpLeg
	{
		OFFSET -8.207800 -6.751701 -1.599544
		CHANNELS 6 Xposition Yposition Zposition Xrotation Yrotation Zrotation
		JOINT mixamorig:RightLeg
		{
			OFFSET 0.000004 -44.370152 0.345934
			CHANNELS 3 Xrotation Yrotation Zrotation
			JOINT mixamorig:RightFoot
			{
				OFFSET 0.000004 -44.423664 -3.043535
				CHANNELS 3 Xrotation Yrotation Zrotation
				JOINT mixamorig:RightToeBase
				{
					OFFSET 0.000001 -8.728691 10.710592
					CHANNELS 3 Xrotation Yrotation Zrotation
					JOINT mixamorig:RightToe_End
					{
						OFFSET 0.000000 -0.000665 9.278101
						CHANNELS 3 Xrotation Yrotation Zrotation
						End Site
						{
							OFFSET 0.000000 -0.000665 9.278103
						}
					}
				}
			}
		}
	}
	JOINT mixamorig:LeftUpLeg
	{
		OFFSET 8.207800 -6.751701 -1.599544
		CHANNELS 6 Xposition Yposition Zposition Xrotation Yrotation Zrotation
		JOINT mixamorig:LeftLeg
		{
			OFFSET 0.000004 -44.370037 0.346940
			CHANNELS 3 Xrotation Yrotation Zrotation
			JOINT mixamorig:LeftFoot
			{
				OFFSET 0.000004 -44.423611 -3.044388
				CHANNELS 3 Xrotation Yrotation Zrotation
				JOINT mixamorig:LeftToeBase
				{
					OFFSET 0.000001 -8.728690 10.710592
					CHANNELS 3 Xrotation Yrotation Zrotation
					JOINT mixamorig:LeftToe_End
					{
						OFFSET 0.000000 -0.000680 9.278101
						CHANNELS 3 Xrotation Yrotation Zrotation
						End Site
						{
							OFFSET 0.000000 -0.000680 9.278101
						}
					}
				}
			}
		}
	}
}
MOTION
Frames: 4
Frame Time: 0.033333
16.978815 101.932060 2.979701 -4.403330 -2.765162 0.748779 -0.000002 10.181552 0.131521 1.468168 -0.422914 -1.061546 1.357467 0.108064 2.364436 1.363589 0.212931 2.335246 0.000001 16.740351 -2.049020 4.522773 -7.659567 -0.135757 -0.000000 9.617854 1.684976 -21.521129 -31.560901 -11.914729 -0.000001 22.037354 7.501064 0.000001 -0.000001 -0.000000 -4.569998 11.014897 -2.160839 4.624227 0.165433 4.276008 -15.983401 -5.625955 53.446305 -0.000081 62.668639 0.000134 -30.835603 2.134613 16.766349 -2.464801 -1.573990 2.681921 -6.537748 6.960774 -4.476561 7.464474 -23.792692 -2.837930 -2.646261 -1.527821 1.527823 -3.001792 -18.529946 -17.155096 -1.994571 -1.151585 1.151553 -0.000000 0.000001 0.000001 -9.108292 -0.517881 2.259806 -1.889948 4.889247 18.905209 0.540434 -2.179435 27.850738 0.070004 -0.805204 9.934766 -0.000000 0.000000 0.000003 -9.532489 -0.000001 0.000009 -3.736125 3.113525 30.077052 0.549681 -2.196800 28.092597 0.070027 -0.805403 9.937165 0.000000 0.000000 -0.000000 -9.103604 -0.043110 -1.865100 -1.975670 -0.616793 33.570195 0.544782 -2.187637 27.964762 0.070007 -0.805343 9.936546 -0.000001 0.000000 0.000000 -8.076700 -0.486719 -3.806300 -9.722282 -16.513914 31.508233 1.085684 -2.990860 39.894319 0.070190 -0.806363 9.949111 0.000002 0.000000 -0.000001 4.570407 11.014690 -2.160813 -0.188321 -8.380559 -18.917783 12.128007 -7.469717 -49.579773 -0.000007 -18.540434 -0.000000 -24.315820 8.788610 -8.082172 2.466102 -1.576201 2.681699 -8.306559 1.657682 10.986027 7.230311 21.960035 2.178832 2.647878 -1.528758 1.528756 -5.596041 12.091066 16.242893 1.998921 -1.154066 1.154081 0.000002 0.000004 0.000001 9.109282 -0.518025 2.259899 -1.247542 -3.037233 -33.824343 3.650123 5.422812 -67.869479 0.694269 2.768345 -28.154304 0.000001 0.000000 0.000000 9.533413 0.000009 -0.000003 1.760047 6.476089 -44.685177 3.650119 5.422802 -67.869479 0.694271 2.768344 -28.154313 0.000001 0.000000 -0.000003 9.104499 -0.043008 -1.865102 7.130893 10.672306 -52.175918 3.685113 5.436848 -68.239170 0.694177 2.768179 -28.152445 -0.000001 0.000001 0.000001 8.077805 -0.486895 -3.806304 6.334330 19.795988 -56.026908 4.775523 5.751854 -79.389693 0.694264 2.768347 -28.154318 -0.000001 -0.000001 0.000001 -8.207802 -6.751699 -1.599545 -4.098509 -2.761774 -8.286424 22.870948 -0.418300 3.933582 -13.888818 -3.386061 -1.602693 -4.740664 -0.000002 0.000002 -0.000000 0.000001 -0.000000 8.207800 -6.751692 -1.599545 -1.057114 16.084925 1.743929 18.636514 0.087207 5.984425 -14.433549 -4.890419 -6.916369 -2.189394 0.000002 -0.000001 -0.000000 -0.000001 -0.000000 
16.162437 101.931953 3.071629 -4.350214 -2.636423 0.436216 -0.000001 10.181544 0.131524 1.521284 -0.431816 -0.930221 1.396744 0.106131 2.384850 1.402807 0.210846 2.355684 -0.000001 16.740368 -2.049020 4.495865 -7.696641 -0.013748 0.000001 9.617847 1.684973 -21.442539 -31.838469 -11.592379 0.000003 22.037384 7.501081 -0.000001 -0.000001 0.000000 -4.570002 11.014859 -2.160840 4.625131 0.312260 4.305763 -12.739918 -5.752228 54.346992 -0.000034 57.421605 0.000077 -24.149046 2.247522 13.094725 -2.464796 -1.573987 2.681916 -6.170071 5.687752 -4.943892 7.464487 -23.792701 -2.837929 -2.646265 -1.527798 1.527810 -1.919904 -18.922648 -16.959612 -1.994583 -1.151579 1.151577 -0.000001 -0.000000 -0.000000 -9.108298 -0.517880 2.259802 -1.755904 4.544403 23.435357 1.005163 -2.891969 38.325913 0.069993 -0.805212 9.934750 0.000001 0.000001 -0.000000 -9.532491 -0.000002 0.000000 -4.077515 2.359256 34.523024 1.022780 -2.914077 38.673323 0.070024 -0.805535 9.938834 -0.000004 -0.000000 -0.000000 -9.103600 -0.043105 -1.865100 -2.006851 -1.250197 38.060758 1.012648 -2.901379 38.473520 0.070024 -0.805394 9.937123 0.000002 0.000001 -0.000001 -8.076700 -0.486720 -3.806296 -9.177077 -16.759237 36.212154 1.689655 -3.590896 50.385950 0.070186 -0.806359 9.949171 -0.000001 -0.000001 0.000000 4.570397 11.014678 -2.160814 -0.188765 -8.416371 -18.863680 11.957182 -7.818331 -49.405572 0.000004 -18.935351 -0.000017 -24.424140 8.684901 -8.059458 2.466093 -1.576204 2.681695 -8.090131 1.012877 10.398210 7.230309 21.960033 2.178830 2.647882 -1.528758 1.528749 -5.596044 12.091071 16.242890 1.998925 -1.154083 1.154085 -0.000000 -0.000002 -0.000000 9.109270 -0.518019 2.259898 -1.337419 -3.175307 -32.222193 3.243573 5.239888 -63.495877 0.619586 2.624173 -26.566752 0.000000 -0.000001 0.000000 9.533403 0.000009 -0.000003 1.608943 6.318465 -42.543814 3.243557 5.239876 -63.495850 0.619596 2.624179 -26.566743 -0.000000 0.000001 -0.000003 9.104483 -0.042992 -1.865101 6.820420 10.781361 -49.528256 3.274782 5.255268 -63.837304 0.619509 2.624033 -26.565104 -0.000002 0.000001 0.000004 8.077804 -0.486879 -3.806304 6.102641 19.641438 -53.339901 4.340177 5.653436 -75.010558 0.619586 2.624179 -26.566752 0.000000 -0.000001 -0.000001 -8.207801 -6.751709 -1.599543 -3.854590 -2.751696 -7.372358 22.647282 -0.745563 3.931208 -14.122840 -3.345945 -1.919289 -4.489399 -0.000003 -0.000000 0.000000 -0.000000 0.000001 8.207799 -6.751709 -1.599543 -1.387991 16.141260 2.738069 18.789205 -0.262920 5.945050 -14.337537 -4.825493 -7.388670 -2.312774 -0.000005 -0.000000 0.000000 -0.000001 0.000000 
15.346299 101.923866 3.154830 -4.303295 -2.452194 0.123821 -0.000001 10.181555 0.131524 1.576337 -0.433188 -0.795382 1.436868 0.110454 2.399755 1.442866 0.214978 2.370593 0.000000 16.740391 -2.049022 4.487137 -7.741508 0.111694 -0.000002 9.617837 1.684975 -21.422892 -32.140845 -11.287468 0.000003 22.037369 7.501080 0.000002 0.000001 0.000001 -4.570000 11.014890 -2.160842 4.628443 0.441334 4.360763 -9.416208 -5.558276 55.195674 -0.000049 51.917169 0.000079 -19.478661 2.295157 10.956517 -2.464797 -1.573993 2.681903 -5.754845 4.197653 -5.478042 7.464485 -23.792698 -2.837908 -2.646265 -1.527809 1.527820 -0.651011 -19.376442 -16.709283 -1.994587 -1.151587 1.151572 0.000002 -0.000003 -0.000002 -9.108291 -0.517876 2.259800 -1.565561 4.156556 28.723278 1.701336 -3.600514 50.572305 0.069977 -0.805201 9.934754 -0.000005 -0.000000 -0.000000 -9.532504 0.000009 -0.000006 -4.393043 1.453819 39.707127 1.731003 -3.624667 51.043342 0.070073 -0.805680 9.940773 -0.000001 -0.000000 -0.000000 -9.103592 -0.043108 -1.865104 -2.004335 -1.946441 43.313447 1.713171 -3.610204 50.760600 0.070026 -0.805451 9.937802 0.000001 -0.000000 -0.000000 -8.076706 -0.486708 -3.806311 -8.675401 -16.986930 41.670380 2.519270 -4.138415 62.648025 0.070182 -0.806364 9.949233 -0.000002 0.000001 0.000002 4.570407 11.014719 -2.160818 -0.193998 -8.517602 -18.791596 11.805109 -8.125555 -49.277766 -0.000018 -19.360748 -0.000007 -24.487903 8.544621 -8.051287 2.466082 -1.576191 2.681700 -7.857762 0.302930 9.764987 7.230312 21.960037 2.178835 2.647904 -1.528758 1.528751 -5.596044 12.091065 16.242887 1.998925 -1.154085 1.154079 0.000001 0.000000 -0.000000 9.109281 -0.518014 2.259901 -1.430945 -3.328586 -30.476099 2.817990 5.006020 -58.732442 0.542790 2.464757 -24.836964 -0.000000 0.000002 -0.000000 9.533391 0.000007 0.000000 1.451161 6.140424 -40.211246 2.817982 5.006015 -58.732442 0.542797 2.464779 -24.836986 0.000000 -0.000000 0.000001 9.104479 -0.042996 -1.865103 6.463224 10.878678 -46.640176 2.845078 5.022300 -59.042416 0.542729 2.464648 -24.835572 -0.000001 0.000003 -0.000001 8.077785 -0.486896 -3.806299 5.859399 19.461579 -50.415272 3.875957 5.508862 -70.239972 0.542784 2.464791 -24.836982 0.000003 -0.000001 0.000002 -8.207802 -6.751720 -1.599544 -3.627819 -2.753195 -6.491381 22.435621 -1.023114 3.942305 -14.189353 -3.379406 -1.921983 -4.197946 -0.000005 0.000002 -0.000000 0.000000 0.000000 8.207797 -6.751694 -1.599543 -1.767801 16.171185 3.752242 19.005995 -0.657412 5.900963 -14.215967 -4.765293 -7.846821 -2.478964 -0.000002 -0.000001 0.000000 -0.000000 0.000000 
14.529271 101.909271 3.242115 -4.246437 -2.217896 -0.183934 -0.000000 10.181557 0.131526 1.612200 -0.409772 -0.663592 1.461420 0.132221 2.409549 1.467313 0.236511 2.380346 0.000000 16.740368 -2.049020 4.493493 -7.805833 0.245564 -0.000000 9.617849 1.684977 -21.417569 -32.509477 -11.028016 -0.000000 22.037384 7.501077 0.000003 0.000000 -0.000000 -4.570002 11.014863 -2.160838 4.635890 0.510718 4.455387 -5.972940 -4.662010 55.956284 -0.000032 45.913659 0.000063 -18.523314 2.518316 10.800810 -2.464803 -1.573999 2.681913 -5.342900 2.660883 -6.015357 7.464483 -23.792684 -2.837912 -2.646266 -1.527833 1.527812 0.660926 -19.837163 -16.427042 -1.994574 -1.151587 1.151572 0.000002 -0.000001 -0.000000 -9.108313 -0.517883 2.259806 -1.333328 3.777623 34.161639 2.558283 -4.158331 63.187535 0.069976 -0.805203 9.934752 -0.000004 -0.000000 0.000000 -9.532497 -0.000001 0.000001 -4.622999 0.503562 45.034682 2.601797 -4.179972 63.785982 0.070108 -0.805850 9.942776 -0.000003 0.000000 -0.000000 -9.103593 -0.043107 -1.865093 -1.968693 -2.617372 48.726952 2.575146 -4.166759 63.419536 0.070036 -0.805508 9.938505 0.000002 0.000001 0.000000 -8.076717 -0.486715 -3.806287 -8.319963 -17.194544 47.235461 3.474706 -4.504870 75.276041 0.070189 -0.806378 9.949310 -0.000000 0.000002 0.000002 4.570400 11.014668 -2.160814 -0.199700 -8.657256 -18.668384 11.643266 -8.419424 -49.228838 0.000014 -19.728148 0.000022 -24.467677 8.399420 -8.081488 2.466100 -1.576206 2.681698 -7.616216 -0.455114 9.104496 7.230316 21.960042 2.178840 2.647893 -1.528751 1.528753 -5.596044 12.091066 16.242885 1.998921 -1.154066 1.154084 0.000001 0.000001 -0.000002 9.109280 -0.518020 2.259903 -1.524624 -3.493510 -28.631528 2.391409 4.721658 -53.704408 0.466937 2.293933 -23.010130 0.000000 0.000000 -0.000000 9.533401 0.000012 0.000002 1.292628 5.945581 -37.748581 2.391399 4.721657 -53.704415 0.466948 2.293944 -23.010124 -0.000000 0.000000 0.000000 9.104491 -0.043002 -1.865100 6.066485 10.954508 -43.586910 2.414163 4.738225 -53.980382 0.466895 2.293827 -23.008976 0.000000 0.000000 -0.000000 8.077782 -0.486890 -3.806298 5.613711 19.259142 -47.330308 3.400609 5.314980 -65.203267 0.466950 2.293957 -23.010132 0.000001 0.000000 -0.000001 -8.207801 -6.751715 -1.599541 -3.401401 -2.777505 -5.611087 22.212754 -1.318956 3.952582 -14.257162 -3.412002 -1.934621 -3.925444 -0.000000 0.000001 -0.000000 0.000001 0.000001 8.207798 -6.751695 -1.599541 -2.187627 16.173089 4.776351 19.255642 -1.091671 5.852460 -14.064813 -4.709061 -8.293826 -2.684213 0.000002 0.000000 -0.000000 -0.000001 0.000000 
